<?xml version="1.0" encoding="UTF-8" standalone="no"?><!-- Generator: Gravit.io --><svg xmlns="http://www.w3.org/2000/svg" xmlns:xlink="http://www.w3.org/1999/xlink" style="isolation:isolate" viewBox="41.176 -267.906 1783.674 2035.812" width="1783.674pt" height="2035.812pt"><defs><clipPath id="_clipPath_yyPcCelfaCurteJpTQe6T3kz6m6KBd5f"><rect x="41.176" y="-267.906" width="1783.674" height="2035.812"/></clipPath></defs><g clip-path="url(#_clipPath_yyPcCelfaCurteJpTQe6T3kz6m6KBd5f)"><line x1="66.987" y1="250" x2="933.013" y2="-250" vector-effect="non-scaling-stroke" stroke-width="10" stroke="rgb(50,159,94)" stroke-linejoin="round" stroke-linecap="round" stroke-miterlimit="3"/><path d=" M 72.775 228.401 C 80.332 224.038 90.01 226.631 94.373 234.189 C 98.737 241.746 96.143 251.424 88.586 255.787 C 81.029 260.151 71.351 257.557 66.987 250 C 62.624 242.443 65.217 232.765 72.775 228.401 Z " fill="rgb(50,159,94)" stroke="none"/><path d=" M 927.225 -228.401 C 919.668 -224.038 909.99 -226.631 905.627 -234.189 C 901.263 -241.746 903.857 -251.424 911.414 -255.787 C 918.971 -260.151 928.649 -257.557 933.013 -250 C 937.376 -242.443 934.783 -232.765 927.225 -228.401 Z " fill="rgb(50,159,94)" stroke="none"/><line x1="933.013" y1="-250" x2="1799.038" y2="250" vector-effect="non-scaling-stroke" stroke-width="10" stroke="rgb(50,159,94)" stroke-linejoin="round" stroke-linecap="round" stroke-miterlimit="3"/><path d=" M 954.611 -255.787 C 962.169 -251.424 964.762 -241.746 960.399 -234.189 C 956.036 -226.631 946.357 -224.038 938.8 -228.401 C 931.243 -232.765 928.649 -242.443 933.013 -250 C 937.376 -257.557 947.054 -260.151 954.611 -255.787 Z " fill="rgb(50,159,94)" stroke="none"/><path d=" M 1777.439 255.787 C 1769.882 251.424 1767.289 241.746 1771.652 234.189 C 1776.015 226.631 1785.693 224.038 1793.251 228.401 C 1800.808 232.765 1803.401 242.443 1799.038 250 C 1794.675 257.557 1784.997 260.151 1777.439 255.787 Z " fill="rgb(50,159,94)" stroke="none"/><line x1="66.987" y1="1250" x2="933.013" y2="1750" vector-effect="non-scaling-stroke" stroke-width="10" stroke="rgb(50,159,94)" stroke-linejoin="round" stroke-linecap="round" stroke-miterlimit="3"/><path d=" M 88.586 1244.213 C 96.143 1248.576 98.737 1258.254 94.373 1265.811 C 90.01 1273.369 80.332 1275.962 72.775 1271.599 C 65.217 1267.235 62.624 1257.557 66.987 1250 C 71.351 1242.443 81.029 1239.849 88.586 1244.213 Z " fill="rgb(50,159,94)" stroke="none"/><path d=" M 911.414 1755.787 C 903.857 1751.424 901.263 1741.746 905.627 1734.189 C 909.99 1726.631 919.668 1724.038 927.225 1728.401 C 934.783 1732.765 937.376 1742.443 933.013 1750 C 928.649 1757.557 918.971 1760.151 911.414 1755.787 Z " fill="rgb(50,159,94)" stroke="none"/><line x1="933.013" y1="1750" x2="1799.038" y2="1250" vector-effect="non-scaling-stroke" stroke-width="10" stroke="rgb(50,159,94)" stroke-linejoin="round" stroke-linecap="round" stroke-miterlimit="3"/><path d=" M 938.8 1728.401 C 946.357 1724.038 956.036 1726.631 960.399 1734.189 C 964.762 1741.746 962.169 1751.424 954.611 1755.787 C 947.054 1760.151 937.376 1757.557 933.013 1750 C 928.649 1742.443 931.243 1732.765 938.8 1728.401 Z " fill="rgb(50,159,94)" stroke="none"/><path d=" M 1793.251 1271.599 C 1785.693 1275.962 1776.015 1273.369 1771.652 1265.811 C 1767.289 1258.254 1769.882 1248.576 1777.439 1244.213 C 1784.997 1239.849 1794.675 1242.443 1799.038 1250 C 1803.401 1257.557 1800.808 1267.235 1793.251 1271.599 Z " fill="rgb(50,159,94)" stroke="none"/><line x1="66.987" y1="250" x2="933.013" y2="750" vector-effect="non-scaling-stroke" stroke-width="10" stroke="rgb(50,159,94)" stroke-linejoin="round" stroke-linecap="round" stroke-miterlimit="3"/><path d=" M 88.586 244.213 C 96.143 248.576 98.737 258.254 94.373 265.811 C 90.01 273.369 80.332 275.962 72.775 271.599 C 65.217 267.235 62.624 257.557 66.987 250 C 71.351 242.443 81.029 239.849 88.586 244.213 Z " fill="rgb(50,159,94)" stroke="none"/><path d=" M 911.414 755.787 C 903.857 751.424 901.263 741.746 905.627 734.189 C 909.99 726.631 919.668 724.038 927.225 728.401 C 934.783 732.765 937.376 742.443 933.013 750 C 928.649 757.557 918.971 760.151 911.414 755.787 Z " fill="rgb(50,159,94)" stroke="none"/><line x1="933.013" y1="750" x2="1799.038" y2="250" vector-effect="non-scaling-stroke" stroke-width="10" stroke="rgb(50,159,94)" stroke-linejoin="round" stroke-linecap="round" stroke-miterlimit="3"/><path d=" M 938.8 728.401 C 946.357 724.038 956.036 726.631 960.399 734.189 C 964.762 741.746 962.169 751.424 954.611 755.787 C 947.054 760.151 937.376 757.557 933.013 750 C 928.649 742.443 931.243 732.765 938.8 728.401 Z " fill="rgb(50,159,94)" stroke="none"/><path d=" M 1793.251 271.599 C 1785.693 275.962 1776.015 273.369 1771.652 265.811 C 1767.289 258.254 1769.882 248.576 1777.439 244.213 C 1784.997 239.849 1794.675 242.443 1799.038 250 C 1803.401 257.557 1800.808 267.235 1793.251 271.599 Z " fill="rgb(50,159,94)" stroke="none"/><line x1="66.987" y1="1250" x2="66.987" y2="250" vector-effect="non-scaling-stroke" stroke-width="10" stroke="rgb(50,159,94)" stroke-linejoin="round" stroke-linecap="round" stroke-miterlimit="3"/><path d=" M 51.176 1234.189 C 51.176 1225.462 58.261 1218.377 66.987 1218.377 C 75.714 1218.377 82.799 1225.462 82.799 1234.189 C 82.799 1242.915 75.714 1250 66.987 1250 C 58.261 1250 51.176 1242.915 51.176 1234.189 Z " fill="rgb(50,159,94)" stroke="none"/><path d=" M 82.799 265.811 C 82.799 274.538 75.714 281.623 66.987 281.623 C 58.261 281.623 51.176 274.538 51.176 265.811 C 51.176 257.085 58.261 250 66.987 250 C 75.714 250 82.799 257.085 82.799 265.811 Z " fill="rgb(50,159,94)" stroke="none"/><line x1="1799.038" y1="1250" x2="1799.038" y2="250" vector-effect="non-scaling-stroke" stroke-width="10" stroke="rgb(50,159,94)" stroke-linejoin="round" stroke-linecap="round" stroke-miterlimit="3"/><path d=" M 1783.227 1234.189 C 1783.227 1225.462 1790.312 1218.377 1799.038 1218.377 C 1807.765 1218.377 1814.849 1225.462 1814.849 1234.189 C 1814.849 1242.915 1807.765 1250 1799.038 1250 C 1790.312 1250 1783.227 1242.915 1783.227 1234.189 Z " fill="rgb(50,159,94)" stroke="none"/><path d=" M 1814.849 265.811 C 1814.849 274.538 1807.765 281.623 1799.038 281.623 C 1790.312 281.623 1783.227 274.538 1783.227 265.811 C 1783.227 257.085 1790.312 250 1799.038 250 C 1807.765 250 1814.849 257.085 1814.849 265.811 Z " fill="rgb(50,159,94)" stroke="none"/></g></svg>